<mxfile host="65bd71144e">
    <diagram id="m8NkL1udqCvugFwh6ZR4" name="Page-1">
        <mxGraphModel dx="811" dy="629" grid="1" gridSize="10" guides="1" tooltips="1" connect="1" arrows="1" fold="1" page="1" pageScale="1" pageWidth="850" pageHeight="1100" math="0" shadow="0">
            <root>
                <mxCell id="0"/>
                <mxCell id="1" parent="0"/>
                <mxCell id="2" value="Taxi&lt;br&gt;has_many :rides&lt;br&gt;has_many :passengers, through: :rides" style="whiteSpace=wrap;html=1;" vertex="1" parent="1">
                    <mxGeometry x="40" y="120" width="240" height="400" as="geometry"/>
                </mxCell>
                <mxCell id="3" value="Ride&lt;br&gt;belongs_to :taxi&lt;br&gt;belongs_to :passenger" style="whiteSpace=wrap;html=1;" vertex="1" parent="1">
                    <mxGeometry x="300" y="120" width="240" height="400" as="geometry"/>
                </mxCell>
                <mxCell id="4" value="Passenger&lt;br&gt;has_many :rides&lt;br&gt;has_many :taxies, through: :rides" style="whiteSpace=wrap;html=1;" vertex="1" parent="1">
                    <mxGeometry x="570" y="120" width="240" height="400" as="geometry"/>
                </mxCell>
            </root>
        </mxGraphModel>
    </diagram>
</mxfile>